<?xml version="1.0" standalone="no"?>
<!DOCTYPE svg PUBLIC "-//W3C//DTD SVG 20010904//EN"
 "http://www.w3.org/TR/2001/REC-SVG-20010904/DTD/svg10.dtd">
<svg version="1.0" xmlns="http://www.w3.org/2000/svg"
 width="100.000000pt" height="100.000000pt" viewBox="0 0 100.000000 100.000000"
 preserveAspectRatio="xMidYMid meet">

<g transform="translate(0.000000,100.000000) scale(0.100000,-0.100000)"
fill="#ffffff" stroke="none">
<path d="M395 955 c-16 -9 -40 -28 -52 -42 -17 -21 -25 -24 -36 -15 -11 9 -19
6 -40 -16 -40 -42 -41 -104 -1 -147 17 -18 23 -33 18 -44 -4 -9 -10 -45 -13
-81 l-6 -65 -92 -24 c-98 -25 -119 -45 -59 -56 23 -5 52 -25 91 -65 l57 -57
-16 -31 c-9 -17 -38 -58 -66 -91 -41 -50 -50 -67 -50 -100 0 -32 6 -44 31 -65
35 -30 62 -32 103 -11 35 19 36 19 36 -1 0 -30 24 -8 67 61 39 63 45 85 23 85
-4 0 -20 -21 -36 -47 -27 -46 -27 -46 -37 -22 -5 13 -12 139 -14 279 -4 252
-4 255 19 294 58 99 224 116 286 29 11 -16 28 -58 37 -93 25 -102 56 -180 71
-180 18 0 18 10 -5 67 -10 26 -27 81 -37 122 -28 119 -88 171 -194 171 -56 0
-113 -20 -147 -52 -22 -21 -23 -21 -43 -3 -13 12 -20 31 -20 56 0 48 17 59 41
28 16 -20 20 -22 29 -9 5 8 10 22 10 31 0 20 51 69 73 69 12 0 17 -8 17 -30 0
-36 1 -36 57 -9 64 31 85 22 72 -31 -3 -11 6 -16 36 -18 62 -4 81 -10 114 -38
38 -31 40 -47 5 -34 -36 14 -64 12 -64 -4 0 -7 14 -16 32 -20 18 -3 45 -18 60
-33 38 -36 54 -21 38 35 -17 66 -84 122 -146 122 -19 0 -24 5 -24 25 0 41 -66
56 -132 30 -12 -5 -17 0 -20 17 -4 29 -32 34 -73 13z m-125 -470 c0 -29 3 -28
-58 -13 l-47 12 40 12 c58 18 65 17 65 -11z m-26 -55 c14 -5 26 -16 26 -25 0
-22 -13 -19 -40 10 -26 28 -24 30 14 15z m35 -278 c1 -54 -11 -78 -45 -86 -38
-10 -74 17 -74 55 0 23 13 45 50 87 28 31 51 61 51 66 3 21 18 -80 18 -122z"/>
<path d="M359 611 c-50 -51 -35 -124 31 -151 24 -10 37 -10 56 -1 30 13 21 35
-11 27 -15 -4 -32 2 -49 15 -31 24 -34 39 -6 32 30 -8 63 25 55 56 -6 23 -5
24 17 9 15 -10 25 -28 28 -52 6 -41 22 -49 31 -14 9 35 -10 77 -42 93 -43 23
-77 18 -110 -14z m43 -36 c0 -5 -5 -11 -11 -13 -6 -2 -11 4 -11 13 0 9 5 15
11 13 6 -2 11 -8 11 -13z"/>
<path d="M730 407 c0 -21 70 -125 135 -202 l58 -68 -60 5 c-33 3 -79 16 -102
28 -56 28 -68 15 -34 -35 l26 -39 -34 21 c-140 84 -135 84 -141 13 l-3 -35
-34 48 c-19 26 -39 46 -45 44 -6 -2 -15 -22 -20 -45 -10 -46 -20 -52 -36 -22
-13 24 -30 26 -30 5 0 -18 49 -95 61 -95 8 0 29 63 29 88 0 23 15 12 50 -38
19 -27 40 -48 45 -46 6 1 11 26 13 54 2 29 5 52 7 52 2 0 47 -25 100 -56 109
-63 137 -62 89 1 l-28 37 42 -7 c58 -9 133 -8 144 3 5 5 -22 46 -71 105 -44
53 -92 119 -108 147 -27 47 -53 66 -53 37z"/>
</g>
</svg>
