<?xml version="1.0" standalone="no"?>
<!DOCTYPE svg PUBLIC "-//W3C//DTD SVG 20010904//EN"
 "http://www.w3.org/TR/2001/REC-SVG-20010904/DTD/svg10.dtd">
<svg version="1.0" xmlns="http://www.w3.org/2000/svg"
 width="64.000000pt" height="64.000000pt" viewBox="0 0 64.000000 64.000000"
 preserveAspectRatio="xMidYMid meet">

<g transform="translate(0.000000,64.000000) scale(0.100000,-0.100000)"
fill="#ffffff" stroke="none">
<path d="M244 630 c-34 -13 -64 -59 -64 -96 0 -27 -4 -34 -19 -34 -25 0 -63
-48 -59 -75 1 -12 -7 -34 -20 -49 -25 -33 -29 -82 -8 -112 8 -11 21 -69 30
-129 9 -60 17 -110 19 -111 9 -7 146 -24 197 -24 51 0 188 17 197 24 2 1 10
51 19 111 9 60 22 118 30 129 21 30 17 79 -8 112 -13 15 -21 37 -20 49 4 26
-33 75 -56 75 -28 0 -136 48 -147 64 -7 11 -6 22 2 36 11 16 10 21 -6 30 -23
12 -58 12 -87 0z m70 -34 c-8 -35 11 -63 53 -77 21 -6 47 -18 58 -25 11 -8 29
-14 41 -14 11 0 29 -9 40 -21 17 -18 17 -23 4 -47 -9 -15 -35 -37 -60 -50 -39
-20 -56 -23 -127 -19 -78 3 -103 -3 -67 -17 27 -10 139 -7 175 6 19 6 47 20
62 31 27 18 29 18 48 2 54 -49 -9 -144 -75 -114 -20 9 -29 7 -56 -12 -45 -34
-135 -34 -180 0 -27 19 -36 21 -56 12 -71 -32 -130 69 -69 117 20 16 24 26 19
49 -4 21 -1 35 11 46 21 22 43 21 96 -3 45 -20 179 -29 179 -11 0 5 -35 11
-77 13 -107 7 -133 21 -133 69 0 29 6 43 31 63 18 15 43 26 60 26 26 0 29 -3
23 -24z m-105 -509 c1 -43 -2 -58 -11 -55 -20 7 -35 188 -17 199 16 10 27 -45
28 -144z m256 49 c-8 -95 -10 -106 -26 -106 -10 0 -12 61 -3 148 5 47 10 59
21 55 12 -5 14 -22 8 -97z m-328 86 c15 -10 30 -182 15 -182 -13 0 -19 19 -27
95 -3 33 -8 68 -11 78 -6 18 3 22 23 9z m389 -9 c-3 -10 -8 -45 -11 -78 -8
-76 -14 -95 -27 -95 -15 0 0 172 15 182 20 13 29 9 23 -9z m-268 -101 c2 -60
-1 -92 -8 -92 -15 0 -18 13 -23 108 -5 74 -3 83 11 80 14 -3 17 -19 20 -96z
m155 16 c-5 -94 -8 -108 -23 -108 -11 0 -15 172 -3 183 3 4 12 7 19 7 9 0 11
-21 7 -82z m-103 -23 c0 -69 -3 -85 -15 -85 -12 0 -15 16 -15 85 0 69 3 85 15
85 12 0 15 -16 15 -85z m50 0 c0 -69 -3 -85 -15 -85 -12 0 -15 16 -15 85 0 69
3 85 15 85 12 0 15 -16 15 -85z"/>
</g>
</svg>
