<?xml version="1.0" standalone="no"?>
<!DOCTYPE svg PUBLIC "-//W3C//DTD SVG 20010904//EN"
 "http://www.w3.org/TR/2001/REC-SVG-20010904/DTD/svg10.dtd">
<svg version="1.0" xmlns="http://www.w3.org/2000/svg"
 width="100.000000pt" height="100.000000pt" viewBox="0 0 100.000000 100.000000"
 preserveAspectRatio="xMidYMid meet">

<g transform="translate(0.000000,100.000000) scale(0.100000,-0.100000)"
fill="#ffffff" stroke="none">
<path d="M225 961 c-119 -54 -215 -252 -202 -417 11 -142 84 -235 220 -278 9
-3 20 -14 23 -23 43 -136 136 -209 278 -220 208 -16 436 129 436 277 0 125
-157 248 -352 275 -46 7 -46 7 -53 53 -27 195 -150 352 -275 352 -19 0 -53 -9
-75 -19z m128 -35 c41 -17 114 -96 138 -150 20 -46 49 -150 49 -178 0 -12 -11
-19 -37 -24 -120 -22 -217 -114 -238 -227 -8 -43 -20 -45 -74 -17 -77 39 -131
136 -131 236 0 178 123 372 238 374 12 0 37 -6 55 -14z m309 -397 c84 -18 170
-63 221 -118 78 -83 74 -154 -14 -236 -54 -51 -125 -86 -207 -104 -156 -33
-284 17 -338 133 -31 66 -31 126 0 192 54 116 181 166 338 133z"/>
</g>
</svg>
