<?xml version="1.0" standalone="no"?>
<!DOCTYPE svg PUBLIC "-//W3C//DTD SVG 20010904//EN"
 "http://www.w3.org/TR/2001/REC-SVG-20010904/DTD/svg10.dtd">
<svg version="1.0" xmlns="http://www.w3.org/2000/svg"
 width="100.000000pt" height="100.000000pt" viewBox="0 0 100.000000 100.000000"
 preserveAspectRatio="xMidYMid meet">

<g transform="translate(0.000000,100.000000) scale(0.100000,-0.100000)"
fill="#ffffff" stroke="none">
<path d="M745 930 l-25 -50 -43 6 c-34 5 -49 1 -77 -18 -45 -30 -80 -83 -80
-120 0 -68 -135 -211 -280 -298 -115 -69 -151 -113 -158 -194 -12 -141 92
-245 236 -234 82 6 163 57 287 182 104 105 157 184 210 311 17 39 38 77 48 85
26 21 46 105 36 148 -4 19 -23 51 -42 71 -28 29 -33 41 -27 61 14 45 11 87 -6
94 -38 15 -54 6 -79 -44z m62 -9 c-3 -16 -9 -40 -12 -54 -5 -20 1 -32 34 -65
37 -36 41 -45 41 -89 0 -26 -5 -55 -10 -63 -8 -12 -14 -10 -36 18 -29 36 -56
41 -76 14 -7 -10 -25 -26 -39 -36 -26 -16 -27 -16 -33 6 -3 13 -6 40 -6 61 0
46 -15 54 -76 40 -51 -12 -54 -5 -24 44 27 46 71 66 125 58 l44 -7 25 51 c29
56 52 68 43 22z m-164 -247 c8 -77 19 -88 65 -65 21 10 45 28 56 40 l19 20 19
-24 c17 -22 18 -30 8 -63 -17 -52 -83 -183 -118 -234 -72 -104 -197 -219 -296
-272 -81 -43 -184 -29 -238 31 -25 28 -48 88 -48 127 0 79 36 124 154 194 97
58 180 133 243 218 44 60 72 79 119 83 6 1 14 -23 17 -55z"/>
<path d="M546 626 c-11 -18 -13 -27 -4 -32 13 -8 51 33 42 47 -9 15 -21 10
-38 -15z"/>
<path d="M439 501 c-36 -36 -95 -83 -132 -105 -65 -37 -76 -49 -59 -60 29 -18
295 196 278 223 -11 17 -17 13 -87 -58z"/>
<path d="M195 150 c-21 -23 -12 -39 13 -24 19 12 29 44 14 44 -5 0 -17 -9 -27
-20z"/>
<path d="M256 124 c-10 -26 -7 -44 8 -44 14 0 29 37 20 52 -8 13 -21 9 -28 -8z"/>
<path d="M320 123 c0 -30 17 -50 31 -36 8 8 8 16 0 32 -14 26 -31 27 -31 4z"/>
</g>
</svg>
