<?xml version="1.0" standalone="no"?>
<!DOCTYPE svg PUBLIC "-//W3C//DTD SVG 20010904//EN"
 "http://www.w3.org/TR/2001/REC-SVG-20010904/DTD/svg10.dtd">
<svg version="1.0" xmlns="http://www.w3.org/2000/svg"
 width="64.000000pt" height="64.000000pt" viewBox="0 0 64.000000 64.000000"
 preserveAspectRatio="xMidYMid meet">

<g transform="translate(0.000000,64.000000) scale(0.100000,-0.100000)"
fill="#ffffff" stroke="none">
<path d="M370 613 c-14 -3 -51 -16 -83 -30 l-58 -26 -22 22 c-13 11 -31 21
-40 21 -36 0 -96 -134 -83 -186 3 -12 -1 -49 -9 -80 -29 -112 -12 -197 51
-256 47 -44 94 -58 194 -58 99 0 111 9 68 54 -13 13 -24 36 -25 51 -4 46 -18
51 -62 22 -49 -33 -56 -33 -75 -5 -33 46 -12 96 25 62 17 -16 22 -16 29 -4 6
8 10 29 10 47 0 25 7 36 35 53 l36 22 33 -38 c44 -51 66 -43 66 25 0 27 -4 52
-10 56 -5 3 11 27 36 53 25 26 57 67 72 91 22 37 23 45 11 55 -8 6 -13 21 -11
34 3 21 1 22 -80 21 -46 -1 -94 -4 -108 -6z m157 -31 c-23 -25 -21 -30 7 -34
l25 -3 -28 -40 c-22 -33 -33 -41 -65 -43 -72 -6 -113 47 -82 107 16 30 18 31
88 31 68 0 70 -1 55 -18z m-164 -12 c-3 -10 -25 -34 -49 -52 -24 -18 -44 -36
-44 -40 0 -15 19 -8 49 18 l31 26 9 -25 c13 -34 49 -57 91 -57 l35 -1 -40 -35
c-22 -19 -79 -58 -127 -85 -48 -28 -97 -62 -108 -76 -32 -41 -25 -88 24 -141
20 -22 20 -23 1 -16 -11 4 -32 18 -47 32 -15 14 -31 22 -35 19 -10 -11 37 -56
74 -69 31 -11 45 -28 23 -28 -21 0 -85 31 -109 53 -33 31 -61 95 -61 143 0 61
35 162 75 216 37 51 104 101 163 123 50 18 51 18 45 -5z m-168 -10 c21 -23 13
-39 -10 -20 -19 16 -32 6 -17 -13 14 -17 6 -28 -15 -20 -12 5 -14 1 -8 -15 5
-16 2 -22 -9 -22 -9 0 -16 -8 -16 -19 0 -11 -4 -23 -10 -26 -23 -14 2 80 34
130 20 30 27 31 51 5z m245 -252 l0 -41 -25 23 c-29 28 -32 45 -8 59 26 14 33
5 33 -41z m-170 -68 c0 -21 -15 -27 -25 -10 -7 12 2 30 16 30 5 0 9 -9 9 -20z
m76 -111 c3 -6 1 -16 -5 -22 -15 -15 -14 -27 2 -27 8 0 22 -9 32 -20 18 -20
17 -20 -37 -20 -53 0 -56 1 -61 28 -5 21 0 32 21 49 30 26 38 28 48 12z"/>
<path d="M424 576 c-10 -26 4 -48 28 -44 33 4 33 52 0 56 -13 2 -25 -3 -28
-12z m36 -16 c0 -5 -4 -10 -10 -10 -5 0 -10 5 -10 10 0 6 5 10 10 10 6 0 10
-4 10 -10z"/>
<path d="M293 445 c-62 -41 -66 -47 -50 -69 8 -11 28 -17 61 -18 40 0 53 4 68
22 18 23 24 50 10 50 -4 0 -12 -10 -17 -22 -12 -27 -55 -38 -55 -13 0 14 -2
14 -25 -1 -15 -10 -25 -12 -25 -5 0 6 19 23 43 38 23 15 44 28 46 29 1 2 1 8
0 13 -2 6 -27 -4 -56 -24z"/>
<path d="M235 450 c-3 -5 1 -10 9 -10 9 0 16 5 16 10 0 6 -4 10 -9 10 -6 0
-13 -4 -16 -10z"/>
<path d="M325 421 c-3 -5 -1 -12 5 -16 5 -3 10 1 10 9 0 18 -6 21 -15 7z"/>
<path d="M185 390 c-3 -5 1 -10 9 -10 9 0 16 5 16 10 0 6 -4 10 -9 10 -6 0
-13 -4 -16 -10z"/>
<path d="M157 331 c-6 -16 -19 -32 -29 -34 -13 -4 -18 -15 -18 -41 0 -20 5
-36 10 -36 6 0 10 -13 10 -30 0 -16 5 -30 10 -30 6 0 10 15 10 34 0 26 5 36
20 41 11 3 20 11 20 17 0 5 -7 7 -15 4 -8 -3 -22 -9 -30 -12 -11 -4 -15 0 -15
15 0 16 6 21 26 21 21 0 24 4 19 20 -3 10 -1 28 5 40 8 14 8 20 -1 20 -6 0
-16 -13 -22 -29z"/>
<path d="M290 80 c0 -5 5 -10 10 -10 6 0 10 5 10 10 0 6 -4 10 -10 10 -5 0
-10 -4 -10 -10z"/>
</g>
</svg>
