<?xml version="1.0" standalone="no"?>
<!DOCTYPE svg PUBLIC "-//W3C//DTD SVG 20010904//EN"
 "http://www.w3.org/TR/2001/REC-SVG-20010904/DTD/svg10.dtd">
<svg version="1.0" xmlns="http://www.w3.org/2000/svg"
 width="200px" height="60px" viewBox="0 0 308.000000 124.000000"
 preserveAspectRatio="xMidYMid meet">

<g transform="translate(0.000000,124.000000) scale(0.100000,-0.100000)"
fill="#ffffff" stroke="none">
<path d="M2730 1107 c0 -8 41 -77 46 -77 2 0 0 8 -3 18 -7 19 -43 68 -43 59z"/>
<path d="M2706 994 c-17 -45 -4 -83 51 -152 35 -42 35 -43 17 -64 -19 -21 -19
-21 4 -9 31 16 28 41 -13 92 -37 47 -59 106 -49 133 3 9 4 16 1 16 -3 0 -8 -7
-11 -16z"/>
<path d="M2443 923 c-18 -7 -16 -42 2 -49 22 -9 8 -24 -23 -24 -43 0 -133 -47
-140 -72 -8 -32 -7 -33 24 -31 325 24 435 37 432 51 -7 33 -57 56 -128 60 -39
2 -70 8 -70 13 0 5 5 9 10 9 6 0 10 11 10 25 0 24 -3 25 -52 24 -29 0 -59 -3
-65 -6z m89 -25 c-24 -24 -14 -48 21 -49 59 -2 102 -9 130 -20 60 -25 39 -30
-235 -52 -82 -7 -148 -9 -148 -5 0 16 66 48 123 59 50 10 57 14 57 35 0 15 -6
24 -15 24 -8 0 -15 5 -15 10 0 6 21 10 47 10 37 0 44 -3 35 -12z"/>
<path d="M844 787 c-20 -39 -47 -99 -60 -132 -31 -81 -30 -41 2 73 19 65 23
97 16 104 -16 16 -30 2 -58 -55 -23 -47 -23 -50 -4 -27 l22 25 -6 -25 c-34
-145 -57 -273 -50 -280 26 -25 36 -12 60 70 24 84 107 270 120 270 4 0 4 -22
1 -49 -4 -35 -2 -53 8 -61 19 -15 25 -2 32 72 5 61 5 64 -21 76 -25 11 -27 10
-62 -61z"/>
<path d="M1095 816 c-14 -24 -41 -81 -59 -126 -55 -133 -58 -120 -9 48 13 46
21 88 18 93 -13 20 -31 7 -57 -41 -33 -60 -35 -70 -7 -39 16 19 19 20 15 6 -3
-10 -18 -77 -33 -149 -26 -127 -26 -131 -8 -144 10 -8 20 -12 22 -11 1 2 14
43 28 93 28 95 95 246 114 259 9 5 11 -8 9 -50 -2 -39 1 -59 9 -62 14 -5 22
22 25 91 3 40 -1 50 -19 63 -20 14 -23 12 -48 -31z"/>
<path d="M1217 837 c-7 -12 -20 -33 -27 -47 l-13 -25 27 24 26 24 0 -39 c0
-53 -26 -223 -40 -258 -12 -32 -5 -66 14 -66 22 0 54 43 121 160 36 63 65 109
65 102 0 -40 -57 -291 -86 -380 -74 -227 -157 -294 -254 -206 -44 40 -62 39
-36 -1 28 -42 95 -85 134 -85 106 0 204 232 273 641 20 115 21 139 10 153 -19
23 -31 20 -31 -7 0 -32 -102 -234 -140 -277 -22 -25 -29 -29 -26 -15 10 36 35
209 38 259 3 42 0 49 -19 57 -17 6 -25 3 -36 -14z"/>
<path d="M1917 821 c-30 -45 -27 -54 5 -18 l19 22 -5 -65 c-3 -36 -16 -109
-30 -162 -14 -53 -27 -103 -28 -110 -2 -7 6 -14 18 -16 16 -2 23 5 32 35 31
104 154 319 175 306 14 -9 1 -124 -28 -241 -15 -56 -23 -106 -20 -112 10 -15
25 -12 32 8 3 9 21 53 39 97 27 63 29 75 13 55 l-21 -25 6 25 c3 14 11 62 17
108 11 75 10 84 -6 102 -10 11 -24 20 -31 20 -18 0 -60 -54 -105 -136 -38 -69
-60 -97 -44 -56 3 9 13 48 21 86 14 69 14 70 -9 94 l-24 23 -26 -40z"/>
<path d="M251 817 c-29 -48 -71 -201 -71 -262 0 -68 20 -94 77 -102 l43 -6 25
54 c34 75 31 92 -7 35 -82 -124 -134 -59 -92 113 17 66 56 155 73 165 5 3 17
3 26 0 15 -6 16 -16 11 -66 -6 -48 -4 -58 8 -58 20 0 28 33 24 96 -3 46 -5 49
-30 49 -14 0 -30 3 -34 8 -15 15 -33 6 -53 -26z"/>
<path d="M1690 818 c-25 -41 -57 -141 -70 -221 -8 -52 -7 -67 8 -96 19 -39 62
-58 105 -47 31 7 72 83 97 182 25 98 26 155 1 185 -16 20 -22 22 -44 12 -20
-10 -28 -9 -37 3 -19 22 -39 17 -60 -18z m122 -63 c-8 -145 -75 -294 -128
-283 -27 5 -36 55 -23 133 16 95 46 175 67 175 9 0 26 7 37 16 36 27 50 14 47
-41z"/>
<path d="M596 733 c-75 -166 -144 -280 -147 -241 -3 52 6 125 27 202 14 50 27
101 30 114 5 17 2 22 -13 22 -15 0 -27 -16 -46 -61 -14 -33 -20 -56 -13 -50
11 9 11 2 1 -43 -7 -30 -16 -86 -20 -124 -7 -69 -6 -71 20 -88 27 -17 27 -17
46 7 10 13 39 63 64 112 26 48 48 87 49 87 2 0 -3 -28 -10 -62 -17 -82 -17
-133 0 -147 16 -13 20 -9 30 34 4 17 9 39 12 50 4 16 3 17 -5 5 -9 -13 -11
-12 -11 5 0 29 36 176 56 225 14 35 15 43 3 51 -8 5 -16 9 -19 9 -3 0 -28 -48
-54 -107z"/>
<path d="M2265 711 c-6 -5 -21 -11 -35 -13 -19 -2 -25 -9 -25 -28 0 -20 6 -26
30 -30 29 -5 30 -8 36 -67 10 -110 36 -123 237 -123 138 0 151 2 177 22 34 27
55 75 55 128 0 37 2 40 29 40 30 0 45 19 35 45 -4 8 -19 15 -34 15 -16 0 -32
5 -35 10 -8 13 -457 14 -470 1z m455 -80 c0 -148 -17 -161 -219 -161 -145 0
-150 1 -180 25 -24 21 -31 36 -36 80 -4 30 -4 71 -1 90 l7 35 214 0 215 0 0
-69z m-455 39 c-3 -5 -15 -10 -26 -10 -10 0 -19 5 -19 10 0 6 12 10 26 10 14
0 23 -4 19 -10z m515 0 c0 -5 -9 -10 -20 -10 -11 0 -20 5 -20 10 0 6 9 10 20
10 11 0 20 -4 20 -10z"/>
<path d="M2310 608 c0 -51 5 -71 21 -92 27 -35 45 -34 20 2 -13 17 -21 48 -24
85 -5 80 -17 84 -17 5z"/>
</g>
</svg>
