<?xml version="1.0" standalone="no"?>
<!DOCTYPE svg PUBLIC "-//W3C//DTD SVG 20010904//EN"
 "http://www.w3.org/TR/2001/REC-SVG-20010904/DTD/svg10.dtd">
<svg version="1.0" xmlns="http://www.w3.org/2000/svg"
 width="64.000000pt" height="64.000000pt" viewBox="0 0 64.000000 64.000000"
 preserveAspectRatio="xMidYMid meet">

<g transform="translate(0.000000,64.000000) scale(0.100000,-0.100000)"
fill="#FFFFFF" stroke="none">
<path d="M415 588 c-88 -18 -121 -38 -197 -120 -40 -44 -103 -113 -141 -153
-37 -41 -67 -80 -67 -87 0 -7 9 -28 20 -46 20 -33 22 -34 78 -30 56 3 57 2 60
-24 2 -16 9 -28 18 -28 8 0 14 -8 14 -17 1 -38 30 20 30 59 0 36 2 38 31 38
30 0 31 -1 25 -35 -6 -29 -4 -35 11 -35 10 0 26 -14 35 -30 10 -17 25 -33 34
-37 20 -8 212 85 225 109 15 28 11 35 -60 116 -41 46 -71 91 -76 111 -4 18
-22 47 -41 66 l-34 34 29 20 c32 23 92 28 137 11 33 -13 42 -6 23 16 -13 16
-11 17 18 11 48 -9 50 9 3 33 -49 25 -109 31 -175 18z m142 -20 c26 -11 24
-12 -39 -18 -50 -5 -80 -14 -117 -37 -32 -20 -57 -29 -71 -26 -20 5 -20 6 -3
26 48 53 167 82 230 55z m-236 -43 c-40 -37 -76 -50 -50 -18 15 17 69 53 82
53 4 0 -10 -16 -32 -35z m216 9 c-3 -3 -12 -4 -19 -1 -8 3 -5 6 6 6 11 1 17
-2 13 -5z m-155 -82 c30 -17 68 -79 68 -111 0 -25 49 -126 57 -118 3 3 -2 21
-11 39 -16 31 -14 30 34 -17 58 -57 61 -79 13 -111 -61 -41 -163 -79 -181 -67
-28 17 -25 41 7 58 17 8 37 28 44 43 14 27 28 166 20 190 -11 30 -18 5 -21
-76 -3 -98 -11 -121 -52 -145 -48 -29 -57 -23 -63 41 -7 69 4 125 34 165 12
16 16 28 8 25 -28 -9 -51 -56 -56 -116 -6 -61 -6 -62 -37 -62 -17 0 -62 -7
-100 -14 -85 -18 -129 -5 -53 15 26 7 47 17 47 22 0 5 -10 6 -22 2 -13 -4 -36
-9 -53 -12 -29 -6 -29 -5 -13 13 11 13 14 24 8 34 -7 11 6 31 48 75 31 33 71
78 87 99 44 55 119 67 187 28z m-340 -224 c-7 -7 -12 -8 -12 -2 0 14 12 26 19
19 2 -3 -1 -11 -7 -17z m178 -82 c0 -19 -4 -23 -20 -19 -11 3 -20 14 -20 24 0
12 7 19 20 19 14 0 20 -7 20 -24z"/>
<path d="M230 355 c0 -8 9 -15 20 -15 11 0 20 7 20 15 0 8 -9 15 -20 15 -11 0
-20 -7 -20 -15z"/>
</g>
</svg>
