<?xml version="1.0" standalone="no"?>
<!DOCTYPE svg PUBLIC "-//W3C//DTD SVG 20010904//EN"
 "http://www.w3.org/TR/2001/REC-SVG-20010904/DTD/svg10.dtd">
<svg version="1.0" xmlns="http://www.w3.org/2000/svg"
 width="64.000000pt" height="64.000000pt" viewBox="0 0 64.000000 64.000000"
 preserveAspectRatio="xMidYMid meet">

<g transform="translate(0.000000,64.000000) scale(0.100000,-0.100000)"
fill="#ffffff" stroke="none">
<path d="M399 588 c0 -2 -2 -16 -3 -33 -1 -16 -4 -34 -5 -40 -7 -21 0 -45 12
-45 15 0 22 106 7 115 -6 3 -10 5 -11 3z"/>
<path d="M216 535 c-4 -25 -4 -49 -1 -55 11 -18 25 -11 25 13 0 12 1 35 2 51
5 49 -19 41 -26 -9z"/>
<path d="M306 535 c-7 -46 -3 -65 15 -65 6 0 8 9 4 19 -3 11 -1 28 6 39 13 20
7 52 -10 52 -5 0 -12 -20 -15 -45z"/>
<path d="M135 420 c-3 -5 -15 -10 -25 -10 -44 0 -122 -118 -101 -152 14 -23
14 -45 0 -50 -7 -2 0 -31 18 -78 l29 -75 264 0 264 0 29 75 c16 41 25 76 20
77 -5 2 -8 28 -6 57 4 75 -17 121 -65 142 -27 11 -44 13 -63 6 -19 -6 -36 -5
-59 4 -45 19 -53 18 -127 -18 -50 -25 -67 -30 -71 -20 -2 8 -24 22 -49 33 -52
22 -50 22 -58 9z m290 -24 c35 -19 53 -54 50 -103 -3 -53 -21 -83 -50 -83 -31
0 -37 11 -24 46 13 36 -12 104 -42 111 -25 7 -24 16 4 29 31 16 31 16 62 0z
m-245 -10 c64 -27 67 -88 8 -148 -22 -23 -35 -28 -77 -28 -46 0 -52 3 -66 31
-12 23 -14 38 -7 58 12 33 48 71 83 88 13 6 25 12 25 12 1 1 16 -5 34 -13z
m369 -2 c49 -24 70 -100 42 -152 -9 -18 -20 -22 -58 -22 -42 0 -45 1 -39 23
13 43 12 105 -1 122 -10 15 -10 20 5 31 9 7 17 14 18 14 0 0 15 -7 33 -16z
m-210 -38 c27 -15 55 -72 40 -81 -5 -4 -9 -14 -9 -25 0 -24 -19 -30 -96 -30
-61 0 -79 9 -51 27 13 9 37 69 37 95 0 15 16 24 45 26 6 1 21 -5 34 -12z m260
-186 l-11 -30 -169 0 c-106 0 -169 -4 -169 -10 0 -6 62 -10 165 -10 142 0 164
-2 159 -15 -9 -23 -499 -23 -508 0 -4 12 4 15 44 15 28 0 50 5 50 10 0 6 -24
10 -54 10 -51 0 -55 2 -65 30 l-10 30 289 0 289 0 -10 -30z"/>
<path d="M426 331 c-4 -5 -2 -12 3 -15 5 -4 12 -2 15 3 4 5 2 12 -3 15 -5 4
-12 2 -15 -3z"/>
<path d="M136 351 c-4 -5 -2 -12 3 -15 5 -4 12 -2 15 3 4 5 2 12 -3 15 -5 4
-12 2 -15 -3z"/>
<path d="M135 290 c-3 -5 1 -10 9 -10 9 0 16 5 16 10 0 6 -4 10 -9 10 -6 0
-13 -4 -16 -10z"/>
<path d="M86 261 c-4 -5 -2 -12 3 -15 5 -4 12 -2 15 3 4 5 2 12 -3 15 -5 4
-12 2 -15 -3z"/>
<path d="M535 330 c3 -5 10 -10 16 -10 5 0 9 5 9 10 0 6 -7 10 -16 10 -8 0
-12 -4 -9 -10z"/>
<path d="M540 250 c0 -5 5 -10 10 -10 6 0 10 5 10 10 0 6 -4 10 -10 10 -5 0
-10 -4 -10 -10z"/>
<path d="M300 310 c0 -5 5 -10 10 -10 6 0 10 5 10 10 0 6 -4 10 -10 10 -5 0
-10 -4 -10 -10z"/>
<path d="M286 261 c-4 -5 -2 -12 3 -15 5 -4 12 -2 15 3 4 5 2 12 -3 15 -5 4
-12 2 -15 -3z"/>
<path d="M200 120 c0 -5 5 -10 10 -10 6 0 10 5 10 10 0 6 -4 10 -10 10 -5 0
-10 -4 -10 -10z"/>
</g>
</svg>
